# xmcd
#
# Track frame offsets:
# 150
# 19886
# 41023
# 61179
# 75083
# 91600
# 108309
# 127990
# 148932
# 172781
#
# Disc length: 2490 seconds
#
#
# Revision: 2
# Processed by: cddbd v1.5.1PL0 Copyright (c) Steve Scherf et al.
# Submitted via: FreeRIP 2.92 
#
DISCID=6e09b80a
DTITLE=Manhattans Greatest Hits - Manhattans - Greatest Hits
DYEAR=1990
DGENRE=Pop.Internacional
TTITLE0=I'll Never Find Another (Find Another Like You)
TTITLE1=Shining Star
TTITLE2=Kiss and Say Goodbye
TTITLE3=Hurt
TTITLE4=There's No Me Without You
TTITLE5=Do You Really Mean Goodbye
TTITLE6=We Never Danced to a Love Song
TTITLE7=It Feels So Good to Be Loved So Bad
TTITLE8=I Kinda Miss You
TTITLE9=Don't Take Your Love
EXTD=
EXTT0=
EXTT1=
EXTT2=
EXTT3=
EXTT4=
EXTT5=
EXTT6=
EXTT7=
EXTT8=
EXTT9=
PLAYORDER=
